<svg xmlns="http://www.w3.org/2000/svg" viewBox="0 0 192.5 232.85"><defs><style>.cls-1{fill:#297fca;}.cls-2{fill:#fff;}</style></defs>
<title>SquareMiddel 1</title><g id="Laag_2" data-name="Laag 2"><g id="Layer_1" data-name="Layer 1">
<path class="cls-1" d="M301,175H167.83a20.92,20.92,0,0,1-20.9-20.9V20.9A20.93,20.93,0,0,1,167.83,0H301a20.92,20.92,0,0,1,20.9,20.9V154.1A20.92,20.92,0,0,1,301,175ZM167.83,5a15.91,15.91,0,0,0-15.9,15.9V154.1a15.91,15.91,0,0,0,15.9,15.9H301a15.91,15.91,0,0,0,15.9-15.9V20.9A15.91,15.91,0,0,0,301,5Z" transform="translate(-146.93)"/
><path class="cls-1" d="M168.44,227.88l-1.28,4.67h-4.25l5.55-18.19h5.38l5.67,18.19h-4.44l-1.4-4.67Zm4.62-3.06L171.93,221c-.31-1.07-.63-2.44-.91-3.5H171c-.27,1.07-.54,2.45-.83,3.51L169,224.82Z" transform="translate(-146.93)"/><path class="cls-1" d="M181.94,214.61a35.57,35.57,0,0,1,5.54-.39c3.46,0,5.71.63,7.45,1.95A8,8,0,0,1,198,223a9.23,9.23,0,0,1-3,7.37c-1.91,1.59-4.84,2.35-8.39,2.35a34.48,34.48,0,0,1-4.67-.27Zm4.11,14.85a10.19,10.19,0,0,0,1.43.07c3.73,0,6.18-2,6.18-6.38,0-3.78-2.21-5.77-5.74-5.77a8.94,8.94,0,0,0-1.87.16Z" transform="translate(-146.93)"/><path class="cls-1" d="M200.73,214.61a35.71,35.71,0,0,1,5.55-.39c3.45,0,5.7.63,7.45,1.95A8,8,0,0,1,216.8,223a9.23,9.23,0,0,1-3,7.37c-1.91,1.59-4.84,2.35-8.39,2.35a34.59,34.59,0,0,1-4.67-.27Zm4.11,14.85a10.19,10.19,0,0,0,1.43.07c3.73,0,6.18-2,6.18-6.38,0-3.78-2.21-5.77-5.74-5.77a8.94,8.94,0,0,0-1.87.16Z" transform="translate(-146.93)"/><path class="cls-1" d="M225,214.6a34.07,34.07,0,0,1,5.55-.38c2.52,0,4.35.49,5.57,1.47a5.26,5.26,0,0,1,1.93,4.2,5.7,5.7,0,0,1-1.67,4.31,8.47,8.47,0,0,1-5.9,1.93,9.26,9.26,0,0,1-1.41-.09v6.51H225Zm4.07,8.25a6.16,6.16,0,0,0,1.37.11c2.18,0,3.53-1.1,3.53-3,0-1.67-1.14-2.67-3.22-2.67a8.05,8.05,0,0,0-1.68.14Z" transform="translate(-146.93)"/><path class="cls-1" d="M244.78,214.36v7h6.78v-7h4.11v18.19h-4.11v-7.61h-6.78v7.61h-4.12V214.36Z" transform="translate(-146.93)"/><path class="cls-1" d="M275.91,223.27c0,6-3.61,9.58-8.93,9.58s-8.57-4.08-8.57-9.27c0-5.44,3.5-9.52,8.86-9.52C272.85,214.06,275.91,218.24,275.91,223.27Zm-13.15.23c0,3.57,1.68,6.08,4.43,6.08s4.37-2.63,4.37-6.17c0-3.28-1.55-6.08-4.38-6.08S262.76,220,262.76,223.5Z" transform="translate(-146.93)"/><path class="cls-1" d="M281.38,217.81h-4.91v-3.45h14v3.45h-5v14.74h-4.12Z" transform="translate(-146.93)"/><path class="cls-1" d="M308.52,223.27c0,6-3.6,9.58-8.92,9.58s-8.57-4.08-8.57-9.27c0-5.44,3.5-9.52,8.86-9.52C305.47,214.06,308.52,218.24,308.52,223.27Zm-13.14.23c0,3.57,1.68,6.08,4.42,6.08s4.37-2.63,4.37-6.17c0-3.28-1.55-6.08-4.38-6.08S295.38,220,295.38,223.5Z" transform="translate(-146.93)"/><circle class="cls-1" cx="169" cy="161" r="21.5"/><path class="cls-1" d="M315.93,184.5a23.5,23.5,0,1,1,23.5-23.5A23.52,23.52,0,0,1,315.93,184.5Zm0-43a19.5,19.5,0,1,0,19.5,19.5A19.53,19.53,0,0,0,315.93,141.5Z" transform="translate(-146.93)"/><path class="cls-2" d="M327,163l-8.93-.08-.07,8.54-3.81,0,.08-8.54-9-.08,0-4,9,.08.07-8.54,3.81,0-.08,8.55L327,159Z" transform="translate(-146.93)"/><path class="cls-1" d="M199.43,113.11V78.4c1.52-4.27,4.63-5.91,9-5.61,2,.14,4,0,6,0a3.27,3.27,0,0,0,3.62-2.6c.64-1.88,1.26-3.77,1.89-5.66a3,3,0,0,1,3.14-2.33c7.88,0,15.75,0,23.63,0a3.09,3.09,0,0,1,3.18,2.3c.63,1.83,1.22,3.67,1.85,5.51.75,2.21,1.56,2.78,3.94,2.79h7.4a6.64,6.64,0,0,1,5.54,2.47,22.69,22.69,0,0,1,1.8,3.42v34.4c-1.15,3.34-3.15,5.74-7,5.74q-28.55.06-57.09,0a6.89,6.89,0,0,1-6.62-4.9C199.67,113.67,199.54,113.39,199.43,113.11ZM235,111.85a17.79,17.79,0,1,0-17.83-18A17.83,17.83,0,0,0,235,111.85Zm28.4-29.38a2.51,2.51,0,0,0-2.43-2.55,2.44,2.44,0,0,0-2.57,2.38,2.54,2.54,0,0,0,2.4,2.6A2.62,2.62,0,0,0,263.36,82.47Z" transform="translate(-146.93)"/><path class="cls-1" d="M234.89,104.67A10.44,10.44,0,0,1,224.33,93.9a10.6,10.6,0,1,1,10.56,10.77Z" transform="translate(-146.93)"/></g></g></svg>