<svg xmlns="http://www.w3.org/2000/svg" viewBox="0 0 44.91 44.91"><defs><style>.cls-1{fill:#e4f1fd;}.cls-2{fill:#fff;}</style></defs><title>SquareMiddel 2</title><g id="Laag_2" data-name="Laag 2"><g id="Layer_1" data-name="Layer 1"><path class="cls-1" d="M36.7,44.91H8.21A8.22,8.22,0,0,1,0,36.7V8.21A8.22,8.22,0,0,1,8.21,0H36.7a8.22,8.22,0,0,1,8.21,8.21V36.7A8.22,8.22,0,0,1,36.7,44.91ZM8.21,3A5.21,5.21,0,0,0,3,8.21V36.7a5.21,5.21,0,0,0,5.21,5.21H36.7a5.21,5.21,0,0,0,5.21-5.21V8.21A5.21,5.21,0,0,0,36.7,3Z"/><path class="cls-2" d="M21.1,37.13l-13-15.2A2.54,2.54,0,0,1,12,18.63l8.58,10,11.77-18a2.54,2.54,0,1,1,4.25,2.78Z"/></g></g></svg>